<?xml version="1.0" encoding="UTF-8" standalone="no"?>
<!-- Created with Inkscape (http://www.inkscape.org/) -->

<svg
   width="512"
   height="512"
   viewBox="0 0 512 512"
   version="1.1"
   id="svg5"
   inkscape:version="1.1.1 (3bf5ae0d25, 2021-09-20)"
   sodipodi:docname="logo.svg"
   xmlns:inkscape="http://www.inkscape.org/namespaces/inkscape"
   xmlns:sodipodi="http://sodipodi.sourceforge.net/DTD/sodipodi-0.dtd"
   xmlns:xlink="http://www.w3.org/1999/xlink"
   xmlns="http://www.w3.org/2000/svg"
   xmlns:svg="http://www.w3.org/2000/svg">
  <sodipodi:namedview
     id="namedview7"
     pagecolor="#ffffff"
     bordercolor="#666666"
     borderopacity="1.0"
     inkscape:pageshadow="2"
     inkscape:pageopacity="0.0"
     inkscape:pagecheckerboard="0"
     inkscape:document-units="px"
     showgrid="false"
     inkscape:zoom="0.8515625"
     inkscape:cx="119.19266"
     inkscape:cy="146.78899"
     inkscape:window-width="1920"
     inkscape:window-height="1058"
     inkscape:window-x="-8"
     inkscape:window-y="-8"
     inkscape:window-maximized="1"
     inkscape:current-layer="layer1" />
  <defs
     id="defs2">
    <linearGradient
       inkscape:collect="always"
       id="linearGradient3381">
      <stop
         style="stop-color:#000000;stop-opacity:1;"
         offset="0"
         id="stop3377" />
      <stop
         style="stop-color:#000000;stop-opacity:0;"
         offset="1"
         id="stop3379" />
    </linearGradient>
    <linearGradient
       inkscape:collect="always"
       id="linearGradient3263">
      <stop
         style="stop-color:#ffff00;stop-opacity:1;"
         offset="0"
         id="stop3259" />
      <stop
         style="stop-color:#ffff00;stop-opacity:0;"
         offset="1"
         id="stop3261" />
    </linearGradient>
    <rect
       x="9.4117651"
       y="90.588234"
       width="497.64706"
       height="238.82353"
       id="rect6505" />
    <linearGradient
       inkscape:collect="always"
       xlink:href="#linearGradient3263"
       id="linearGradient3265"
       x1="397.36459"
       y1="198.41148"
       x2="475.61896"
       y2="287.15164"
       gradientUnits="userSpaceOnUse" />
    <linearGradient
       inkscape:collect="always"
       xlink:href="#linearGradient3381"
       id="linearGradient3383"
       x1="460.79663"
       y1="250.54472"
       x2="513.87238"
       y2="312.01907"
       gradientUnits="userSpaceOnUse" />
  </defs>
  <g
     inkscape:label="Calque 1"
     inkscape:groupmode="layer"
     id="layer1">
    <text
       xml:space="preserve"
       id="text6503"
       style="font-size:72px;line-height:1.25;font-family:sans-serif;white-space:pre;shape-inside:url(#rect6505)"
       transform="matrix(0.68867577,0,0,0.70332452,4.1965621,56.629519)" />
    <text
       xml:space="preserve"
       style="font-size:100.218px;line-height:1.25;font-family:sans-serif;stroke-width:0.695961"
       x="5.4128752"
       y="307.1705"
       id="text13067"
       transform="scale(0.98953131,1.0105794)"><tspan
         sodipodi:role="line"
         id="tspan13065"
         x="5.4128752"
         y="307.1705"
         style="stroke-width:0.695961">Theme</tspan></text>
    <ellipse
       style="fill:#b3b3b3;stroke:#000000;stroke-width:0.695961;stroke-opacity:0"
       id="path19187"
       cx="362.21008"
       cy="295.78061"
       rx="12.558204"
       ry="12.82533" />
    <ellipse
       style="fill:#ffd42a;stroke:#120000;stroke-width:0.695961;stroke-opacity:0;fill-opacity:0.84959352"
       id="path19335"
       cx="373.95804"
       cy="296.19437"
       rx="15.39393"
       ry="15.721373" />
    <path
       d="M 397.3646,198.41148 H 513.87237 V 312.01906 H 397.3646 V 198.41148 m 30.6157,94.92545 c 2.58904,5.3648 7.70241,9.78287 16.44048,9.78287 9.70903,0 16.37585,-5.04923 16.37585,-16.0944 v -36.48067 h -11.00355 v 36.22821 c 0,5.42791 -2.2654,6.81645 -5.8254,6.81645 -3.75409,0 -5.30754,-2.52462 -7.05515,-5.49104 l -8.93223,5.23858 m 38.70643,-1.13608 c 3.23637,6.18529 9.77373,10.91895 20.00047,10.91895 10.35629,0 18.12347,-5.23857 18.12347,-14.89521 0,-8.89927 -5.24284,-12.87554 -14.56347,-16.78868 l -2.71858,-1.13608 c -4.72496,-1.95658 -6.73151,-3.282 -6.73151,-6.43777 0,-2.58772 2.00655,-4.60741 5.24283,-4.60741 3.10691,0 5.17814,1.32541 7.05523,4.60741 l 8.4792,-5.49102 c -3.55999,-6.05908 -8.60867,-8.39434 -15.53443,-8.39434 -9.77365,0 -16.05215,6.05907 -16.05215,14.07472 0,8.70991 5.24285,12.8124 13.13949,16.0944 l 2.7185,1.13608 c 5.04868,2.14593 8.02604,3.47134 8.02604,7.13203 0,3.02953 -2.91267,5.23858 -7.44348,5.23858 -5.3723,0 -8.47913,-2.71397 -10.80938,-6.50088 z"
       fill="#ffca28"
       id="path2"
       style="fill:url(#linearGradient3265);stroke-width:6.39156;fill-opacity:1" />
    <path
       style="fill:#000000;stroke:#000000;stroke-width:0.409389;stroke-opacity:0"
       d="m 439.89114,302.05772 c -3.06517,-0.68096 -5.36492,-1.85605 -7.53409,-3.84964 -1.94437,-1.78713 -4.03629,-4.59981 -3.7603,-5.05596 0.10525,-0.1739 2.04074,-1.38559 4.3012,-2.69267 3.72935,-2.15649 4.14692,-2.30869 4.51117,-1.6441 0.22075,0.40284 1.03595,1.44984 1.81165,2.32669 2.41414,2.72903 6.60323,3.11442 9.0724,0.83466 1.77833,-1.64191 1.96814,-3.92863 1.9708,-23.74542 v -17.68655 h 5.26633 5.26633 v 18.74829 c 0,11.7574 -0.16455,19.65746 -0.44128,21.18654 -1.15265,6.36758 -4.88975,10.22054 -11.24838,11.59695 -3.28563,0.71122 -5.95672,0.70577 -9.21819,-0.0188 z"
       id="path21456" />
    <path
       style="fill:url(#linearGradient3383);stroke:#000000;stroke-width:0.409389;stroke-opacity:0;fill-opacity:1"
       d="m 482.60365,302.56104 c -5.15547,-0.7752 -10.6297,-3.9031 -13.40802,-7.66119 -0.89697,-1.21332 -1.52243,-2.38531 -1.38987,-2.60438 0.13257,-0.21909 1.98536,-1.35862 4.11716,-2.5323 l 3.87602,-2.13396 1.99281,2.12263 c 2.79524,2.97744 5.02113,3.93678 9.08554,3.9157 5.01435,-0.0259 7.49437,-1.83246 7.49437,-5.45912 0,-2.6454 -1.84658,-4.38894 -7.08927,-6.6938 -9.53215,-4.19061 -12.25368,-5.97738 -14.42101,-9.46762 -1.50227,-2.41926 -2.04295,-4.45115 -2.06163,-7.74771 -0.0199,-3.59887 0.9838,-6.36993 3.23496,-8.92696 5.90288,-6.70501 18.67301,-6.96255 24.99694,-0.50413 3.13193,3.19848 3.14604,3.10637 -0.88537,5.76234 -1.94502,1.28147 -3.76369,2.419 -4.04138,2.52785 -0.27777,0.10883 -1.10331,-0.49797 -1.83446,-1.34848 -1.58884,-1.84803 -3.33216,-2.66429 -5.69033,-2.66429 -2.53024,0 -4.44196,1.18123 -5.13332,3.17187 -1.19887,3.45174 0.60163,5.72202 6.48684,8.17959 13.29252,5.55073 16.9712,9.39364 16.97047,17.72791 -3e-4,2.8752 -0.17748,3.77937 -1.15213,5.87999 -3.07603,6.62987 -11.33397,9.93176 -21.14832,8.45606 z"
       id="path21495" />
  </g>
</svg>
